<?xml version="1.0" standalone="no"?>
<!DOCTYPE svg PUBLIC "-//W3C//DTD SVG 20010904//EN"
 "http://www.w3.org/TR/2001/REC-SVG-20010904/DTD/svg10.dtd">
<svg version="1.0" xmlns="http://www.w3.org/2000/svg"
 width="180.000000pt" height="180.000000pt" viewBox="0 0 180.000000 180.000000"
 preserveAspectRatio="xMidYMid meet">
<metadata>
Created by potrace 1.11, written by Peter Selinger 2001-2013
</metadata>
<g transform="translate(0.000000,180.000000) scale(0.100000,-0.100000)"
fill="#000000" stroke="none">
<path d="M758 1700 c-26 -4 -51 -11 -56 -14 -5 -3 -22 -8 -39 -10 -113 -20
-304 -149 -394 -266 -13 -18 -28 -37 -34 -44 -29 -35 -95 -167 -111 -221 -24
-87 -33 -164 -30 -270 2 -66 6 -127 8 -135 3 -8 8 -28 12 -45 40 -162 141
-315 286 -434 14 -11 30 -25 37 -31 24 -20 189 -98 233 -110 25 -7 54 -15 65
-17 11 -3 79 -7 151 -9 125 -3 187 6 289 41 26 9 148 68 155 75 3 3 18 14 34
24 58 37 156 133 184 178 9 16 20 28 24 28 4 0 8 4 8 10 0 5 13 30 29 55 16
26 44 92 63 148 31 96 33 111 33 242 0 132 -7 184 -37 270 -13 36 -86 183 -99
199 -84 102 -135 152 -204 203 -60 44 -197 107 -250 114 -2 0 -26 6 -52 13
-56 15 -237 18 -305 6z m280 -32 c12 -4 33 -10 45 -13 70 -15 100 -26 172 -63
132 -68 221 -150 310 -285 27 -42 87 -177 78 -177 -3 0 0 -7 7 -15 7 -8 10
-15 8 -15 -3 0 1 -25 8 -57 13 -57 13 -226 0 -293 -11 -53 -45 -151 -66 -190
-23 -41 -21 -56 -23 180 l-2 174 -33 10 c-21 6 -31 14 -28 22 6 17 -24 34 -59
34 -19 0 -29 -6 -32 -20 -3 -12 -11 -19 -17 -17 -7 2 -12 62 -13 186 -1 101
-4 185 -7 189 -6 5 -9 -148 -6 -295 1 -41 -3 -74 -9 -78 -19 -11 -12 -22 13
-18 13 3 27 0 30 -6 5 -7 -10 -11 -46 -12 -29 0 -63 -2 -75 -5 -13 -2 -23 1
-23 7 0 6 9 9 20 6 11 -3 20 -1 20 5 0 5 9 6 20 3 11 -4 20 -2 20 4 0 14 -40
13 -105 -3 l-50 -11 0 -362 c0 -395 1 -383 -57 -397 l-28 -6 0 174 c0 144 -3
182 -18 218 -13 32 -17 70 -17 151 1 59 -2 107 -5 107 -13 0 -19 -13 -13 -23
4 -6 7 -55 7 -109 1 -73 -2 -98 -11 -98 -10 0 -13 21 -12 78 1 122 -1 156 -8
148 -4 -3 -6 -38 -5 -76 1 -39 -2 -70 -6 -70 -4 0 -7 24 -6 53 0 32 -4 54 -10
54 -6 0 -11 -15 -11 -34 0 -18 3 -33 8 -33 4 0 7 -5 7 -11 0 -5 -3 -8 -7 -6
-10 6 -9 -50 0 -60 4 -3 2 -12 -4 -20 -9 -10 -8 -13 1 -13 8 0 10 -3 7 -7 -4
-3 0 -14 8 -23 12 -13 15 -40 12 -128 -1 -61 0 -119 4 -129 7 -17 12 98 9 205
-1 43 2 52 15 52 11 0 15 -5 12 -14 -3 -7 0 -19 6 -26 9 -10 9 -11 -1 -6 -16
9 -14 -61 2 -83 8 -11 8 -13 -1 -7 -8 4 -13 1 -13 -8 0 -9 6 -16 13 -16 8 0 7
-4 -3 -10 -8 -5 -10 -10 -5 -10 6 0 3 -5 -5 -10 -10 -7 -11 -10 -2 -10 8 0 10
-8 6 -26 -6 -21 -4 -25 7 -19 8 5 6 -1 -4 -12 -10 -12 -14 -24 -9 -27 5 -3 9
-23 8 -43 -2 -21 2 -44 8 -52 8 -11 8 -13 -1 -7 -8 4 -13 1 -13 -8 0 -9 -4
-16 -9 -16 -5 0 -9 17 -9 38 -1 77 -2 92 -9 92 -5 0 -7 -31 -6 -70 1 -74 3
-71 -44 -70 -5 0 -8 9 -8 21 0 11 -7 24 -15 29 -12 8 -11 10 5 10 17 0 17 2 5
10 -12 8 -12 10 -1 10 11 0 11 3 0 17 -10 11 -10 14 -1 9 15 -9 15 -1 2 25 -8
14 -7 19 2 19 9 0 9 3 -2 10 -11 7 -11 10 -2 10 10 0 10 5 1 21 -8 15 -8 19 0
15 6 -4 11 -2 11 3 0 6 -6 11 -12 11 -8 0 -9 3 -3 8 12 8 13 42 2 60 -5 7 -3
12 4 12 8 0 8 4 -1 15 -10 12 -10 15 1 16 8 0 5 4 -6 8 -24 10 -24 10 -30 -18
-2 -12 1 -21 8 -21 7 0 6 -4 -3 -10 -13 -9 -13 -10 0 -10 13 0 13 -1 0 -10
-12 -8 -12 -10 -1 -10 10 0 11 -3 3 -13 -7 -8 -7 -18 -2 -27 5 -9 5 -19 -2
-27 -7 -9 -7 -13 1 -13 6 0 11 -5 11 -11 0 -5 -4 -8 -8 -5 -5 3 -9 -1 -9 -9 0
-8 5 -15 11 -15 6 0 5 -5 -2 -12 -13 -13 -16 -32 -4 -24 4 2 8 -4 8 -14 0 -10
-3 -17 -7 -14 -4 2 -5 -16 -4 -41 l3 -45 -39 0 c-24 0 -38 4 -34 10 3 6 1 10
-5 10 -6 0 -8 5 -3 12 10 17 10 49 0 72 -6 13 -6 16 2 12 6 -4 11 -2 11 3 0 6
-4 11 -10 11 -5 0 -10 5 -10 11 0 5 4 8 8 5 5 -3 9 1 9 9 0 8 -4 15 -9 15 -5
0 -6 4 -3 10 11 19 14 50 4 55 -5 4 -6 12 -2 18 13 21 13 58 0 50 -7 -4 -6 0
2 10 11 14 11 17 0 17 -11 0 -11 2 1 10 13 9 13 10 0 10 -13 0 -13 1 0 10 10
6 11 10 3 10 -7 0 -13 5 -13 11 0 5 6 7 13 3 9 -5 9 -4 0 6 -8 9 -9 19 -2 32
7 12 6 18 -1 18 -6 0 -8 5 -3 13 11 18 12 37 2 37 -6 0 -7 5 -3 12 11 17 11
78 1 78 -4 0 -5 5 -2 11 11 17 13 59 3 59 -5 0 -6 4 -3 10 11 19 14 50 4 55
-5 4 -6 12 -2 18 9 15 12 47 3 47 -8 0 -5 48 3 56 14 14 76 10 82 -5 3 -8 1
-17 -4 -20 -6 -4 -6 -12 -1 -21 5 -9 5 -19 -2 -27 -7 -9 -7 -13 1 -13 7 0 9
-5 5 -12 -11 -17 -12 -68 -2 -68 4 0 8 -5 8 -11 0 -5 -4 -8 -8 -5 -5 3 -9 -1
-9 -9 0 -8 5 -15 11 -15 6 0 5 -5 -2 -12 -15 -15 -16 -32 -1 -22 7 4 7 -1 -1
-16 -10 -18 -10 -21 2 -14 10 6 11 5 1 -7 -7 -9 -9 -20 -3 -29 6 -9 5 -18 -3
-23 -9 -7 -9 -10 1 -14 10 -4 10 -8 0 -21 -10 -12 -10 -14 0 -8 6 4 12 2 12
-3 0 -6 -4 -11 -8 -11 -4 0 -8 -9 -8 -19 0 -11 4 -17 9 -14 5 3 4 -5 -3 -17
-10 -18 -9 -24 1 -31 26 -16 41 -11 29 11 -8 15 -8 20 2 20 9 0 9 3 -2 10 -11
7 -11 10 -2 10 10 0 10 5 1 21 -8 15 -8 19 0 15 6 -4 11 -2 11 3 0 6 -6 11
-12 12 -10 0 -10 2 0 6 6 2 9 10 5 16 -9 15 -10 67 -2 98 4 16 2 32 -4 38 -8
8 -7 11 4 11 12 0 12 2 -1 10 -11 7 -11 10 -2 10 10 0 10 5 1 21 -9 17 -8 20
3 14 7 -3 5 0 -6 9 -18 14 -18 15 3 13 11 -1 21 -5 21 -10 0 -4 4 -6 9 -3 12
8 8 -37 -4 -46 -6 -4 -2 -8 8 -8 9 0 17 7 17 15 0 9 9 25 20 37 17 19 20 19
20 5 0 -9 4 -17 9 -17 4 0 7 37 6 83 -2 81 -15 121 -90 292 -7 17 -19 47 -25
67 -6 21 -18 42 -26 46 -14 8 -22 63 -24 162 0 17 -3 21 -11 13 -6 -6 -12 -43
-13 -81 -2 -54 -8 -76 -24 -97 -12 -15 -22 -32 -22 -38 0 -5 -26 -75 -59 -156
l-59 -146 2 -188 c0 -104 -2 -191 -6 -194 -5 -2 -8 -17 -8 -34 0 -16 -4 -29
-10 -29 -6 0 -10 -66 -10 -179 l0 -180 -32 10 c-17 5 -35 14 -39 21 -4 7 -11
9 -15 5 -4 -4 -13 1 -21 11 -9 10 -11 11 -7 2 7 -13 5 -13 -16 1 -23 15 -24
20 -25 152 -1 87 2 134 8 130 6 -4 7 -1 1 8 -13 21 -13 119 0 119 8 0 8 3 0 8
-6 4 -10 39 -10 80 l1 72 35 0 36 0 -2 -205 c-1 -113 1 -205 5 -205 3 0 7 94
7 209 2 207 1 210 -20 213 -15 2 -22 11 -24 32 -2 18 -11 30 -23 33 -11 3 -19
13 -18 22 4 44 -2 71 -16 71 -13 0 -22 38 -16 73 0 4 -6 7 -14 7 -16 0 -16 1
-19 45 -1 29 -3 30 -52 33 l-51 3 3 -37 c2 -29 -1 -37 -17 -41 -15 -4 -19 -14
-19 -44 0 -28 -4 -39 -15 -39 -8 0 -15 -3 -16 -7 0 -5 -1 -26 -2 -48 -2 -31
-6 -40 -19 -39 -14 1 -18 -6 -18 -31 0 -27 -4 -34 -22 -37 -22 -3 -23 -7 -25
-113 -2 -141 -1 -138 -25 -85 -46 102 -66 204 -63 328 3 124 6 147 32 227 49
154 137 278 273 387 45 37 174 107 207 113 10 2 19 4 21 5 1 2 5 3 10 5 37 10
61 15 86 19 16 3 31 7 34 10 8 8 225 3 250 -6z m-132 -355 c-11 -11 -17 4 -9
23 7 18 8 18 11 1 2 -10 1 -21 -2 -24z m-16 -43 c0 -11 5 -20 11 -20 6 0 9 9
6 20 -8 31 19 24 36 -9 12 -25 13 -31 1 -35 -7 -3 -16 -1 -19 5 -4 5 -22 7
-42 3 -32 -6 -35 -5 -30 10 4 10 7 24 7 32 0 8 7 14 15 14 8 0 15 -9 15 -20z
m-14 -92 c-8 -30 -20 -47 -40 -56 -15 -8 -30 -12 -32 -9 -8 7 34 94 48 100 33
14 37 8 24 -35z m86 23 c13 -13 37 -81 29 -85 -22 -14 -51 9 -65 52 -9 25 -16
47 -16 49 0 6 43 -8 52 -16z m-55 -31 c-3 -11 -1 -18 4 -14 5 3 9 -1 9 -10 0
-8 -6 -16 -12 -19 -20 -6 -39 4 -31 17 8 11 9 16 12 36 0 6 6 10 12 10 6 0 9
-9 6 -20z m30 -91 c3 -24 0 -26 -37 -27 -42 -2 -46 2 -31 42 9 21 14 23 37 17
19 -5 28 -15 31 -32z m-86 14 c-5 -10 -10 -22 -10 -28 -2 -12 -51 -26 -63 -19
-5 3 -4 12 3 20 6 8 8 14 3 15 -12 1 48 28 64 29 9 0 10 -5 3 -17z m164 -10
c0 -6 3 -15 8 -19 16 -16 5 -23 -25 -17 -35 7 -48 18 -48 44 0 13 6 15 33 10
17 -4 32 -12 32 -18z m-563 -29 c2 -20 -2 -43 -10 -55 -9 -14 -10 -19 -1 -17
6 2 12 -9 13 -24 1 -16 -2 -28 -7 -28 -4 0 -5 -4 -2 -10 4 -6 -8 -10 -29 -10
l-36 0 0 46 c0 43 1 45 18 33 16 -13 16 -13 0 7 -18 20 -24 74 -11 87 3 4 19
7 34 7 23 0 27 -5 31 -36z m505 -31 c4 -10 -12 -13 -56 -13 -42 0 -61 4 -61
13 0 9 -2 9 -8 -1 -10 -16 -70 -33 -77 -22 -6 10 14 27 40 32 47 9 158 3 162
-9z m82 -8 c21 -21 10 -26 -32 -14 -44 12 -52 40 -9 33 15 -3 33 -11 41 -19z
m-675 -43 c1 -18 -2 -28 -9 -26 -9 4 -13 43 -6 63 3 12 13 -11 15 -37z m121 3
c2 -14 -1 -27 -6 -31 -5 -3 -9 12 -9 32 0 41 11 40 15 -1z m481 12 c4 -4 -25
-7 -65 -7 -40 0 -70 4 -67 9 7 10 121 9 132 -2z m-149 -3 c-3 -3 -12 -4 -19
-1 -8 3 -5 6 6 6 11 1 17 -2 13 -5z m196 -1 c-7 -2 -19 -2 -25 0 -7 3 -2 5 12
5 14 0 19 -2 13 -5z m-243 -13 c0 -5 -7 -10 -16 -10 -8 0 -12 5 -9 10 3 6 10
10 16 10 5 0 9 -4 9 -10z m280 0 c0 -5 -4 -10 -10 -10 -5 0 -10 5 -10 10 0 6
5 10 10 10 6 0 10 -4 10 -10z m-239 -7 c1 -5 2 -32 3 -61 2 -42 -1 -52 -13
-50 -23 5 -24 118 0 118 5 0 10 -3 10 -7z m200 0 c7 -89 4 -113 -11 -113 -13
0 -16 10 -14 53 2 66 2 67 14 67 6 0 10 -3 11 -7z m475 -5 c11 -17 11 -78 1
-85 -4 -2 -16 1 -25 9 -15 12 -16 11 -3 -5 8 -10 20 -16 28 -13 11 5 13 -2 10
-27 -3 -20 -9 -31 -18 -29 -9 1 -8 -2 4 -11 22 -18 24 -62 2 -53 -8 3 -15 1
-15 -4 0 -6 6 -10 13 -10 9 0 13 -19 13 -65 0 -40 -4 -65 -10 -65 -6 0 -5 -4
3 -9 18 -12 -3 -51 -29 -51 -27 0 -34 17 -13 30 17 11 17 11 1 6 -19 -6 -25 9
-8 19 8 5 7 11 -1 21 -9 11 -8 14 7 15 17 1 17 2 2 6 -20 5 -24 33 -5 34 9 0
9 2 -1 6 -10 4 -10 8 -1 19 7 9 8 18 2 27 -15 18 -10 66 7 77 13 8 12 10 -2
10 -21 0 -23 11 -5 29 10 11 9 12 -3 6 -13 -8 -13 -7 -1 8 7 9 9 17 4 17 -13
0 -12 84 1 92 16 11 34 9 42 -4z m-716 -58 c0 -41 -3 -50 -18 -50 -15 0 -18 9
-17 50 0 41 3 50 18 50 14 0 17 -9 17 -50z m295 0 c-1 -34 -5 -46 -18 -48 -14
-3 -17 5 -17 48 0 44 3 51 18 48 13 -3 17 -13 17 -48z m-709 13 c-3 -7 -1 -13
3 -13 5 0 8 -8 6 -17 -2 -10 -4 -18 -5 -18 -1 0 -3 -10 -4 -22 -2 -14 2 -20 8
-16 6 4 5 -1 -3 -10 -7 -9 -9 -17 -4 -17 10 0 11 -36 1 -46 -4 -3 -5 -11 -2
-18 3 -7 -6 -12 -19 -14 -20 -1 -24 3 -25 28 0 17 4 28 9 25 5 -4 9 -1 9 4 0
6 -4 11 -10 11 -8 0 -12 116 -3 132 7 13 44 4 39 -9z m159 -89 c0 -92 -1 -99
-20 -99 -23 0 -37 33 -22 53 5 6 6 12 1 12 -13 0 -4 124 10 132 25 17 31 -2
31 -98z m745 83 c0 -7 -11 -14 -25 -15 -31 -2 -33 15 -2 21 12 2 23 5 25 6 1
0 2 -5 2 -12z m300 -7 c0 -13 -20 -13 -40 0 -12 8 -9 10 13 10 15 0 27 -4 27
-10z m-1110 -47 c0 -32 -4 -43 -16 -43 -8 0 -13 4 -10 8 3 5 -1 9 -9 9 -8 0
-12 -4 -9 -9 3 -4 -2 -8 -11 -8 -12 0 -15 9 -14 43 3 43 3 44 36 43 32 -1 33
-2 33 -43z m970 0 l0 -43 -47 -1 c-27 0 -57 -3 -68 -5 -11 -3 -37 -7 -57 -10
l-38 -5 0 39 c0 38 2 40 43 50 55 15 72 17 124 17 l43 0 0 -42z m135 15 c8 -9
11 -79 4 -84 -5 -3 -9 -1 -9 5 0 6 -6 8 -14 5 -16 -6 -33 15 -20 25 12 8 16
31 6 31 -5 0 -9 6 -9 14 0 12 32 15 42 4z m-796 -50 c4 -12 5 -37 1 -55 -7
-29 1 -46 13 -25 2 4 3 2 1 -4 -1 -6 3 -17 9 -23 8 -8 7 -14 -2 -23 -11 -11
-13 -10 -8 4 3 10 2 20 -3 23 -6 4 -11 -4 -11 -17 -2 -38 2 -51 19 -66 16 -13
16 -13 0 -8 -23 7 -23 1 2 -24 11 -11 22 -15 25 -10 4 6 1 10 -5 10 -6 0 -8 5
-3 13 10 16 11 87 1 93 -13 8 -9 26 5 18 10 -6 10 -4 0 7 -15 16 -17 33 -3 24
13 -8 0 28 -14 37 -13 9 -18 48 -7 48 6 0 8 -9 6 -20 -2 -12 2 -20 10 -20 8 0
12 6 9 14 -8 21 16 30 34 13 14 -15 14 -17 -1 -23 -9 -3 -17 -10 -17 -16 0 -5
4 -7 8 -4 4 2 8 -9 7 -25 0 -16 -4 -29 -10 -29 -5 0 -3 -5 5 -10 11 -7 11 -10
2 -10 -8 0 -10 -5 -5 -12 11 -18 11 -68 0 -68 -5 0 -3 -7 4 -17 11 -13 11 -17
1 -21 -10 -3 -10 -7 -1 -18 9 -11 9 -14 0 -14 -7 0 -9 -5 -5 -12 11 -17 12
-48 2 -42 -4 3 -6 -8 -3 -23 13 -76 13 -93 2 -86 -7 4 -6 -1 2 -10 10 -13 11
-17 1 -17 -9 0 -7 -6 5 -20 16 -18 16 -20 1 -26 -9 -3 -16 -10 -16 -16 0 -5 4
-7 8 -4 4 2 8 -6 8 -19 0 -13 -4 -21 -8 -19 -11 7 -10 -8 2 -26 6 -9 5 -17 -3
-22 -7 -4 -7 -8 -2 -8 11 0 13 -74 2 -77 -4 -2 -18 -3 -31 -3 -23 0 -24 3 -24
72 0 40 -4 74 -8 75 -5 2 -8 -28 -6 -67 3 -55 1 -70 -10 -70 -11 0 -13 11 -11
42 2 26 -2 45 -9 50 -8 4 -8 8 -2 8 12 0 12 49 -1 69 -5 9 -4 12 3 7 13 -8 12
71 -2 93 -6 9 -5 12 1 8 5 -3 9 19 8 56 0 34 3 70 7 80 5 9 5 17 1 17 -4 0 -8
61 -8 135 0 130 6 160 24 113z m-463 -13 c1 -8 -4 -15 -12 -15 -14 0 -19 21
-7 33 8 9 16 1 19 -18z m260 9 c-3 -9 -6 -20 -6 -25 0 -6 -4 -8 -9 -5 -7 5 -8
23 -2 44 1 1 6 2 12 2 6 0 8 -7 5 -16z m-104 -39 c3 -14 2 -28 -2 -30 -4 -2
-5 -16 -3 -30 5 -23 3 -25 -26 -21 -31 3 -41 -7 -19 -20 6 -4 14 -2 16 4 5 17
30 -9 32 -34 6 -53 3 -57 -46 -51 -34 3 -44 2 -40 -8 2 -7 -1 -18 -7 -24 -6
-6 -7 -11 -1 -11 6 0 10 -11 10 -25 0 -14 -4 -25 -9 -25 -4 0 -5 -4 -2 -10 14
-23 25 -7 25 40 l0 49 38 -2 37 -2 -3 -49 c-2 -33 0 -46 8 -41 7 4 9 41 7 105
-4 107 0 124 29 118 18 -3 19 -17 21 -246 l2 -242 -24 16 c-26 17 -28 25 -27
81 2 47 -16 41 -20 -7 l-3 -40 -32 26 c-32 25 -33 28 -33 100 0 41 -4 74 -9
74 -16 0 -22 -18 -9 -23 10 -4 9 -8 -2 -16 -8 -6 -10 -11 -4 -11 6 0 11 -18
11 -40 0 -22 -1 -40 -3 -40 -2 0 -15 11 -29 26 -25 25 -25 27 -24 179 0 145 1
154 20 160 11 4 23 4 26 1 10 -10 11 -71 1 -83 -8 -10 -6 -13 6 -13 11 0 16
10 17 33 2 53 -2 81 -14 96 -9 12 -9 13 1 7 11 -7 16 6 15 42 -1 7 12 12 32
12 27 0 34 -4 37 -25z m937 7 c1 11 6 15 15 12 9 -4 14 -23 14 -64 0 -42 -4
-58 -12 -53 -6 4 -5 0 2 -9 18 -23 13 -204 -6 -200 -8 1 -11 -2 -7 -8 3 -6 11
-8 16 -5 5 4 9 -1 9 -10 0 -9 -4 -14 -9 -10 -5 3 -13 1 -16 -5 -4 -6 -1 -9 7
-8 9 2 14 -12 16 -46 3 -42 -1 -52 -25 -77 -15 -16 -33 -29 -38 -29 -6 0 -23
-10 -37 -21 -15 -12 -45 -30 -67 -40 l-41 -18 0 22 c0 13 6 29 13 36 10 11 10
13 0 7 -10 -5 -13 3 -13 31 0 22 6 45 13 52 10 11 10 13 0 7 -9 -5 -13 2 -13
23 0 18 5 31 13 32 10 0 10 2 0 6 -8 3 -13 24 -13 54 0 37 3 48 13 43 10 -6
10 -4 0 7 -15 16 -17 33 -3 24 6 -3 10 -1 10 4 0 6 -4 11 -8 11 -5 0 -10 21
-10 46 -1 26 2 43 7 39 5 -3 13 -1 16 5 4 6 1 9 -7 8 -9 -2 -14 14 -15 59 l-3
62 53 10 c87 17 111 17 119 1 5 -12 7 -12 7 2z m-599 -6 c0 -3 -4 -8 -10 -11
-5 -3 -10 -1 -10 4 0 6 5 11 10 11 6 0 10 -2 10 -4z m761 -5 c3 -1 6 -15 7
-33 1 -23 -2 -28 -8 -18 -7 11 -10 11 -10 2 0 -7 7 -15 15 -18 12 -5 13 -10 4
-20 -6 -8 -7 -14 -3 -14 5 0 8 -20 6 -45 -3 -31 -8 -43 -16 -38 -6 4 -4 -1 4
-11 14 -18 15 -86 1 -96 -4 -3 -11 -14 -14 -24 -4 -10 -10 -16 -14 -12 -11 10
-12 36 -2 36 5 0 9 5 9 11 0 5 -4 8 -8 5 -5 -3 -9 1 -9 9 0 8 4 12 9 9 4 -3 8
0 8 5 0 6 -4 11 -10 11 -5 0 -10 5 -10 11 0 5 4 8 8 5 5 -3 9 1 9 9 0 8 -3 12
-6 10 -3 -2 -6 16 -6 40 0 24 3 41 8 38 4 -2 7 1 7 6 0 6 -6 11 -12 12 -10 0
-10 2 0 6 6 2 12 9 12 14 0 6 -4 8 -8 5 -5 -3 -9 1 -9 9 0 8 4 12 9 9 12 -8
10 10 -4 24 -9 9 -9 12 0 12 9 0 10 5 2 19 -8 16 -7 19 8 16 9 -2 20 -4 23 -4z
m-1256 -184 c0 -142 -2 -174 -12 -160 -7 10 -17 24 -24 31 -6 7 -8 20 -5 28 3
8 2 12 -3 9 -18 -10 -23 17 -25 128 -3 142 -2 144 37 143 l32 -1 0 -178z m495
78 c-7 -9 -15 -13 -19 -10 -3 3 1 10 9 15 21 14 24 12 10 -5z m240 -30 c-7 -9
-15 -13 -19 -10 -3 3 1 10 9 15 21 14 24 12 10 -5z m0 -40 c0 -8 -4 -15 -10
-15 -5 0 -7 7 -4 15 4 8 8 15 10 15 2 0 4 -7 4 -15z m467 -67 c-1 -13 -6 -26
-12 -30 -6 -5 -6 -8 1 -8 6 0 11 -13 11 -30 0 -23 -3 -27 -13 -19 -8 7 -14 6
-20 -2 -4 -7 -3 -9 3 -6 6 4 16 0 23 -8 12 -14 7 -19 -13 -16 -5 1 -6 -3 -2
-8 8 -14 -17 -51 -35 -51 -13 0 -13 1 0 10 9 6 10 10 3 10 -13 0 -12 38 2 59
5 9 4 12 -3 7 -7 -4 -10 11 -9 44 2 44 4 50 24 50 12 0 25 5 28 10 10 16 15
11 12 -12z"/>
<path d="M600 335 c0 -8 4 -15 8 -15 5 0 9 7 9 15 0 8 -4 15 -9 15 -4 0 -8 -7
-8 -15z"/>
<path d="M602 255 c0 -30 2 -55 6 -55 4 0 7 25 8 55 0 30 -3 55 -6 55 -4 0 -7
-25 -8 -55z"/>
<path d="M1450 939 c0 -5 5 -7 10 -4 6 3 10 8 10 11 0 2 -4 4 -10 4 -5 0 -10
-5 -10 -11z"/>
<path d="M1450 781 c0 -6 4 -13 10 -16 6 -3 7 1 4 9 -7 18 -14 21 -14 7z"/>
<path d="M1470 670 c-9 -6 -10 -10 -3 -10 6 0 15 5 18 10 8 12 4 12 -15 0z"/>
<path d="M495 780 c-3 -5 -1 -10 4 -10 6 0 11 5 11 10 0 6 -2 10 -4 10 -3 0
-8 -4 -11 -10z"/>
<path d="M1316 842 c-3 -4 4 -9 15 -9 23 -2 25 3 4 10 -8 4 -16 3 -19 -1z"/>
<path d="M1387 839 c7 -7 15 -10 18 -7 3 3 -2 9 -12 12 -14 6 -15 5 -6 -5z"/>
<path d="M1269 823 c-12 -16 -12 -17 2 -6 9 7 20 9 24 5 5 -4 5 -1 1 6 -9 16
-11 15 -27 -5z"/>
<path d="M1230 820 c-13 -8 -12 -10 3 -10 9 0 17 5 17 10 0 12 -1 12 -20 0z"/>
<path d="M820 820 c0 -5 5 -10 11 -10 5 0 7 5 4 10 -3 6 -8 10 -11 10 -2 0 -4
-4 -4 -10z"/>
<path d="M757 508 c1 -51 2 -121 2 -155 1 -35 4 -63 9 -63 4 0 6 58 5 129 -3
124 -2 130 18 136 17 6 18 9 8 15 -7 5 -17 6 -23 3 -5 -4 -7 1 -3 10 4 10 1
17 -6 17 -9 0 -11 -25 -10 -92z"/>
<path d="M820 340 c0 -5 5 -10 11 -10 5 0 7 5 4 10 -3 6 -8 10 -11 10 -2 0 -4
-4 -4 -10z"/>
<path d="M450 415 c0 -30 4 -55 8 -55 4 0 8 25 9 55 0 30 -3 55 -8 55 -5 0 -9
-25 -9 -55z"/>
<path d="M1325 760 c-3 -6 1 -7 9 -4 18 7 21 14 7 14 -6 0 -13 -4 -16 -10z"/>
<path d="M1348 733 c7 -3 16 -2 19 1 4 3 -2 6 -13 5 -11 0 -14 -3 -6 -6z"/>
<path d="M1230 720 c0 -5 5 -10 11 -10 5 0 7 5 4 10 -3 6 -8 10 -11 10 -2 0
-4 -4 -4 -10z"/>
<path d="M1229 683 c-13 -16 -12 -17 4 -4 9 7 17 15 17 17 0 8 -8 3 -21 -13z"/>
<path d="M1280 690 c-9 -6 -10 -10 -3 -10 6 0 15 5 18 10 8 12 4 12 -15 0z"/>
<path d="M1255 660 c-3 -5 -1 -10 4 -10 6 0 11 5 11 10 0 6 -2 10 -4 10 -3 0
-8 -4 -11 -10z"/>
<path d="M1266 622 c-3 -5 1 -9 9 -9 8 0 15 4 15 9 0 4 -4 8 -9 8 -6 0 -12 -4
-15 -8z"/>
<path d="M1326 598 c3 -4 9 -8 15 -8 5 0 9 4 9 8 0 5 -7 9 -15 9 -8 0 -12 -4
-9 -9z"/>
<path d="M1386 602 c-3 -5 1 -9 9 -9 8 0 15 4 15 9 0 4 -4 8 -9 8 -6 0 -12 -4
-15 -8z"/>
<path d="M1261 554 c0 -11 3 -14 6 -6 3 7 2 16 -1 19 -3 4 -6 -2 -5 -13z"/>
<path d="M1249 513 c-12 -16 -12 -17 2 -6 9 7 20 9 24 5 5 -4 5 -1 1 6 -9 16
-11 15 -27 -5z"/>
<path d="M1264 488 c-3 -4 5 -5 17 -3 30 6 36 14 9 12 -12 -1 -24 -5 -26 -9z"/>
<path d="M1223 445 c0 -7 6 -11 14 -8 7 3 13 6 13 8 0 2 -6 5 -13 8 -8 3 -14
-1 -14 -8z"/>
<path d="M1268 453 c6 -2 18 -2 25 0 6 3 1 5 -13 5 -14 0 -19 -2 -12 -5z"/>
<path d="M1265 422 c2 -3 0 -13 -5 -23 -7 -12 -7 -20 0 -24 6 -4 10 -3 9 2 -3
19 2 34 9 29 5 -3 9 1 9 8 0 7 -6 13 -14 13 -7 0 -11 -2 -8 -5z"/>
<path d="M1229 319 c-7 -4 -5 -8 5 -12 8 -3 18 -2 21 3 3 5 14 7 25 5 11 -2
22 -1 24 3 6 9 -61 10 -75 1z"/>
<path d="M1355 320 c3 -5 8 -10 11 -10 2 0 4 5 4 10 0 6 -5 10 -11 10 -5 0 -7
-4 -4 -10z"/>
<path d="M1274 284 c-18 -14 -18 -14 6 -3 31 14 36 19 24 19 -6 0 -19 -7 -30
-16z"/>
<path d="M1260 246 c0 -2 7 -7 16 -10 8 -3 12 -2 9 4 -6 10 -25 14 -25 6z"/>
<path d="M1455 500 c-3 -5 -1 -10 4 -10 6 0 11 5 11 10 0 6 -2 10 -4 10 -3 0
-8 -4 -11 -10z"/>
</g>
</svg>
